<?xml version="1.0" standalone="no"?>
<!DOCTYPE svg PUBLIC "-//W3C//DTD SVG 20010904//EN"
 "http://www.w3.org/TR/2001/REC-SVG-20010904/DTD/svg10.dtd">
<svg version="1.0" xmlns="http://www.w3.org/2000/svg"
 width="600.000000pt" height="403.000000pt" viewBox="0 0 600.000000 403.000000"
 preserveAspectRatio="xMidYMid meet">
<g transform="translate(0.000000,403.000000) scale(0.100000,-0.100000)"
fill="#b8a56b" stroke="none">
<path d="M5 2015 c0 -1111 1 -1564 2 -1007 2 558 2 1467 0 2020 -1 554 -2 98
-2 -1013z"/>
<path d="M5995 2015 c0 -1111 1 -1564 2 -1007 2 558 2 1467 0 2020 -1 554 -2
98 -2 -1013z"/>
<path d="M2984 3749 c-33 -36 -97 -76 -275 -169 -212 -112 -301 -172 -388
-265 -69 -75 -115 -150 -154 -252 -22 -58 -22 -62 -25 -850 l-3 -793 -39 0
-40 0 -40 -86 c-22 -48 -40 -88 -40 -90 0 -8 2070 -4 2070 4 0 4 -17 44 -37
89 l-38 82 -42 1 -43 0 -2 793 -3 792 -27 73 c-36 98 -94 185 -181 269 -89 87
-167 137 -376 244 -90 46 -190 105 -222 132 -33 26 -63 47 -68 47 -4 0 -16
-10 -27 -21z m286 -414 c239 -62 397 -174 481 -342 l34 -68 3 -752 3 -753 -70
0 -70 0 -3 628 -3 627 -29 57 c-37 73 -113 158 -185 207 -31 21 -115 68 -186
104 -72 36 -152 81 -179 100 l-48 35 -67 -43 c-36 -23 -113 -66 -171 -95 -208
-104 -300 -182 -362 -308 l-33 -67 -5 -624 -5 -624 -42 1 c-24 0 -52 1 -63 1
-20 1 -20 8 -20 749 l0 747 23 55 c51 123 154 227 290 293 226 109 469 133
707 72z m-55 -455 c161 -41 289 -132 340 -242 l25 -53 0 -582 0 -583 -116 0
-116 0 -41 -35 c-73 -62 -133 -79 -287 -80 -111 0 -144 4 -185 19 -58 23 -115
56 -134 80 -11 13 -34 16 -132 16 l-119 0 0 583 c0 555 1 584 20 625 29 65 84
126 153 171 159 104 384 135 592 81z"/>
<path d="M3166 2754 c-24 -60 -14 -80 39 -77 37 3 38 2 20 -17 -10 -11 -28
-21 -39 -21 -18 -1 -19 -2 -2 -6 10 -3 23 0 29 6 6 6 15 11 19 11 15 0 8 -30
-12 -50 -25 -25 -16 -26 24 -1 53 33 67 7 41 -75 -4 -13 1 -28 14 -45 l21 -24
-9 25 c-9 29 -6 44 20 82 11 14 19 34 19 45 0 27 -44 70 -80 78 -17 4 -30 10
-28 13 26 50 30 63 25 68 -3 3 -16 -5 -28 -17 l-23 -23 -9 37 c-5 20 -12 37
-15 37 -4 0 -16 -21 -26 -46z"/>
<path d="M2910 2722 c-85 -22 -143 -58 -206 -124 -52 -55 -94 -143 -94 -196 0
-21 6 -14 25 32 13 32 39 74 56 92 33 34 56 39 26 6 -9 -10 -28 -44 -43 -77
-24 -51 -29 -78 -34 -190 -7 -131 -18 -172 -59 -219 -16 -18 -15 -18 14 -3 41
20 71 78 86 161 7 45 14 64 20 55 5 -8 9 -24 9 -36 0 -36 30 -115 57 -151 14
-18 27 -31 29 -29 2 2 -8 30 -22 61 -19 42 -28 81 -32 142 -2 46 -2 84 1 84 3
0 15 -21 27 -46 45 -91 114 -146 200 -158 l45 -7 -48 25 c-94 47 -144 116
-154 211 -5 45 15 149 23 120 39 -147 67 -183 228 -289 140 -92 173 -128 212
-231 7 -18 8 -16 12 9 12 89 -35 161 -159 248 -110 77 -172 138 -194 190 -20
50 -19 134 4 183 22 49 86 108 135 126 20 7 36 17 36 21 0 14 -133 7 -200 -10z"/>
<path d="M3052 2501 c-26 -46 -30 -127 -8 -170 15 -29 92 -88 102 -78 3 3 -4
10 -15 16 -32 18 -71 82 -71 118 0 18 2 33 3 33 9 0 124 -41 143 -51 12 -6 34
-31 49 -55 22 -35 34 -44 56 -44 16 0 29 5 29 10 0 6 -10 10 -22 10 -16 0 -29
11 -43 38 -16 29 -36 45 -91 72 -99 49 -106 56 -102 102 2 21 1 38 -2 38 -4 0
-16 -17 -28 -39z"/>
<path d="M3350 2502 c0 -21 20 -53 57 -96 29 -31 34 -44 29 -68 -5 -26 -4 -29
9 -18 24 20 17 52 -21 95 -20 22 -44 54 -55 70 -10 17 -19 24 -19 17z"/>
<path d="M2943 1894 c-41 -59 -72 -144 -52 -144 15 0 79 -62 79 -76 0 -10 -9
-6 -27 11 -16 14 -40 29 -56 32 -15 3 -30 9 -32 13 -3 5 5 35 17 69 25 68 19
85 -16 52 -21 -20 -76 -135 -76 -159 0 -4 17 -6 38 -4 40 3 114 -18 119 -35 3
-7 -13 -7 -46 -2 -31 5 -71 3 -110 -5 -34 -7 -61 -11 -61 -9 0 2 9 22 20 43
39 76 -10 42 -95 -65 -68 -87 -58 -92 81 -39 73 27 114 37 154 37 70 -1 199
-1 270 0 41 1 78 -8 147 -36 89 -36 133 -45 133 -29 -1 12 -134 165 -148 170
-9 3 -7 -10 8 -38 l21 -42 -41 7 c-53 9 -98 9 -152 0 -38 -7 -41 -6 -30 8 17
20 105 41 144 33 22 -4 29 -3 25 7 -3 6 -17 41 -32 77 -27 66 -59 109 -71 97
-9 -9 17 -117 28 -117 4 0 8 -4 8 -9 0 -5 -16 -12 -35 -15 -21 -4 -49 -21 -70
-43 -19 -20 -35 -32 -35 -27 0 16 61 84 75 84 8 0 16 4 19 9 10 16 -23 106
-52 141 l-29 34 -15 -29 c-9 -17 -19 -70 -23 -119 -9 -110 -25 -97 -25 20 0
64 -4 87 -18 104 l-19 23 -20 -29z"/>
<path d="M2180 1095 c0 -8 7 -15 15 -15 8 0 15 7 15 15 0 8 -7 15 -15 15 -8 0
-15 -7 -15 -15z"/>
<path d="M1670 966 c0 -96 -3 -117 -18 -137 -12 -14 -25 -20 -36 -16 -22 9
-38 54 -31 89 6 23 3 28 -13 28 -23 0 -32 -18 -32 -66 0 -71 85 -110 141 -65
23 18 24 27 27 150 3 127 3 131 -17 131 -20 0 -21 -5 -21 -114z"/>
<path d="M1762 968 l3 -113 38 -3 c22 -2 48 3 61 12 17 10 26 12 34 4 17 -17
154 -23 181 -8 17 8 26 9 34 1 14 -14 50 -14 63 -1 7 7 20 7 41 0 16 -6 68
-10 114 -8 l84 3 0 110 c0 97 -2 110 -17 113 -16 3 -18 -6 -18 -92 0 -52 -4
-97 -10 -101 -5 -3 -21 -3 -35 1 -21 5 -25 12 -25 43 0 54 -10 81 -30 81 -16
0 -17 -7 -13 -60 6 -59 5 -60 -20 -60 -24 0 -26 3 -29 53 -2 38 -7 52 -18 52
-11 0 -16 -13 -18 -47 -5 -81 -52 -92 -52 -12 0 37 -3 44 -19 44 -16 0 -20 -8
-23 -42 -3 -40 -5 -43 -34 -46 -30 -3 -31 -2 -37 44 -2 25 -11 50 -18 55 -27
18 -58 21 -85 7 -29 -14 -36 -25 -51 -73 -6 -22 -15 -31 -36 -33 l-27 -3 0 95
c0 90 -1 96 -20 96 -20 0 -21 -5 -18 -112z m216 -41 c3 -38 3 -38 -30 -35 -26
2 -34 8 -36 26 -6 38 5 54 35 50 24 -3 28 -8 31 -41z"/>
<path d="M2480 965 c0 -96 3 -115 15 -115 12 0 15 19 15 115 0 96 -3 115 -15
115 -12 0 -15 -19 -15 -115z"/>
<path d="M2844 1067 c-2 -7 -3 -58 -2 -113 l3 -99 42 -3 c23 -2 51 2 62 7 14
8 27 8 46 -1 19 -9 31 -9 44 -1 13 8 31 8 63 1 69 -16 78 -9 78 61 0 71 -6 91
-30 91 -15 0 -16 -7 -12 -50 6 -62 -1 -80 -27 -73 -16 4 -21 15 -23 57 -2 37
-7 51 -18 51 -11 0 -16 -15 -20 -52 -6 -58 -12 -68 -35 -60 -10 5 -15 20 -15
52 0 38 -3 45 -20 45 -17 0 -20 -7 -20 -40 0 -35 -4 -42 -27 -51 -48 -18 -53
-8 -53 96 0 79 -3 95 -15 95 -9 0 -18 -6 -21 -13z"/>
<path d="M4080 965 c0 -108 1 -115 20 -115 19 0 20 7 20 115 0 108 -1 115 -20
115 -19 0 -20 -7 -20 -115z"/>
<path d="M2154 1059 c-10 -17 13 -36 27 -22 12 12 4 33 -11 33 -5 0 -12 -5
-16 -11z"/>
<path d="M2210 1051 c0 -12 6 -21 16 -21 9 0 14 7 12 17 -5 25 -28 28 -28 4z"/>
<path d="M3392 1054 c4 -21 22 -23 26 -1 2 10 -3 17 -13 17 -10 0 -15 -6 -13
-16z"/>
<path d="M3368 994 c-29 -15 -44 -51 -35 -85 6 -24 -18 -37 -41 -23 -10 7 -16
27 -16 59 -1 39 -5 50 -18 53 -16 3 -18 -5 -18 -70 0 -99 -6 -118 -41 -125
-16 -3 -29 -9 -29 -14 0 -15 20 -21 51 -14 23 5 35 16 45 41 l14 34 100 0 100
0 0 48 c0 70 -8 89 -42 101 -38 13 -37 14 -70 -5z m70 -67 c3 -38 3 -38 -30
-35 -26 2 -34 8 -36 26 -6 38 5 54 35 50 24 -3 28 -8 31 -41z"/>
<path d="M3887 950 c6 -59 5 -60 -20 -60 -24 0 -26 3 -29 53 -2 38 -7 52 -18
52 -11 0 -16 -13 -18 -47 -5 -81 -52 -92 -52 -12 0 37 -3 44 -20 44 -18 0 -20
-7 -20 -69 0 -71 -14 -101 -45 -101 -25 0 -48 47 -42 85 4 27 2 35 -9 35 -22
0 -37 -44 -30 -84 8 -41 38 -66 79 -66 40 0 63 15 75 50 8 21 15 28 27 24 8
-4 21 -2 28 4 8 7 29 6 65 -1 62 -13 72 -5 72 54 0 63 -11 99 -30 99 -16 0
-17 -7 -13 -60z"/>
<path d="M4190 991 c0 -11 9 -23 20 -26 17 -5 50 -51 50 -69 0 -3 -21 -6 -47
-8 -35 -2 -48 -7 -48 -18 0 -13 26 -15 163 -18 l162 -2 0 58 c0 75 -15 97 -68
97 -54 0 -82 -26 -82 -77 0 -54 -31 -53 -53 2 -9 24 -28 47 -49 60 -41 25 -48
25 -48 1z m254 -37 c3 -9 6 -27 6 -40 0 -25 -20 -31 -54 -18 -16 6 -22 54 -9
67 12 13 51 7 57 -9z"/>
<path d="M2687 993 c-13 -12 -7 -23 13 -23 11 0 20 7 20 15 0 15 -21 21 -33 8z"/>
<path d="M2750 921 c0 -83 -12 -111 -49 -111 -29 0 -41 22 -41 73 0 41 -3 48
-17 45 -14 -2 -19 -15 -21 -51 -3 -39 1 -51 22 -72 34 -34 88 -34 121 0 23 22
25 32 25 110 0 78 -2 85 -20 85 -18 0 -20 -7 -20 -79z"/>
<path d="M3988 911 c-1 -49 -6 -92 -9 -95 -3 -3 -16 -7 -30 -9 -38 -6 -30 -32
10 -30 55 2 66 21 69 128 4 89 3 95 -16 95 -18 0 -20 -8 -24 -89z"/>
<path d="M3550 595 l0 -95 -35 0 -35 0 0 55 c0 48 -2 55 -20 55 -18 0 -20 -7
-20 -55 l0 -55 -35 0 c-32 0 -35 2 -35 29 0 54 -16 79 -55 87 -48 9 -84 -18
-100 -72 -8 -28 -17 -40 -33 -42 -20 -3 -22 1 -22 51 0 48 -3 55 -22 61 -73
19 -128 -12 -128 -73 0 -46 24 -71 68 -71 17 0 34 -5 37 -10 13 -21 -17 -40
-61 -40 -32 0 -44 -4 -44 -15 0 -11 12 -15 48 -15 55 0 87 18 96 55 5 20 13
25 36 25 16 0 32 5 35 10 4 7 12 7 25 0 10 -5 91 -10 179 -10 l161 0 0 110 c0
103 -1 110 -20 110 -19 0 -20 -7 -20 -95z m-432 -52 c3 -39 1 -43 -20 -43 -30
0 -48 17 -48 45 0 28 20 46 45 43 16 -2 21 -12 23 -45z m200 35 c7 -7 12 -27
12 -46 0 -32 -2 -33 -32 -30 -28 2 -34 8 -36 31 -5 46 28 73 56 45z"/>
<path d="M3647 683 c-4 -3 -7 -53 -7 -110 0 -103 0 -104 23 -101 12 2 22 9 21
16 -1 6 -2 55 -2 107 -2 72 -5 95 -15 95 -8 0 -17 -3 -20 -7z"/>
<path d="M2374 669 c-8 -14 11 -33 25 -25 16 10 13 36 -3 36 -8 0 -18 -5 -22
-11z"/>
<path d="M2430 666 c0 -21 21 -31 30 -15 5 7 6 17 4 21 -9 14 -34 9 -34 -6z"/>
<path d="M2870 666 c0 -8 4 -17 8 -20 13 -8 35 11 28 23 -10 16 -36 14 -36 -3z"/>
<path d="M3440 665 c0 -10 7 -15 18 -13 21 4 19 22 -2 26 -10 2 -16 -3 -16
-13z"/>
<path d="M2365 595 c-29 -28 -32 -70 -9 -103 15 -22 19 -22 229 -22 208 0 214
1 220 21 10 30 -3 84 -24 103 -24 22 -106 27 -106 7 0 -8 14 -15 35 -18 42 -4
48 -10 56 -51 l7 -32 -87 0 -86 0 0 55 c0 48 -2 55 -20 55 -18 0 -20 -7 -20
-55 l0 -55 -35 0 -35 0 0 54 c0 47 -3 54 -22 60 -46 12 -79 6 -103 -19z m83
-53 c3 -38 1 -42 -20 -42 -45 0 -63 43 -32 75 28 28 49 15 52 -33z"/>
<path d="M2866 605 c-3 -10 5 -20 23 -30 28 -14 41 -33 41 -61 0 -10 -13 -14
-45 -14 -33 0 -45 -4 -45 -15 0 -12 14 -15 64 -15 36 0 67 3 69 8 2 4 -1 27
-7 52 -8 33 -20 50 -45 67 -40 27 -47 28 -55 8z"/>
<path d="M2525 431 c-8 -15 3 -31 21 -31 9 0 14 7 12 17 -4 20 -24 28 -33 14z"/>
<path d="M2583 424 c-7 -19 2 -28 22 -21 19 8 19 23 0 31 -9 3 -18 -1 -22 -10z"/>
<path d="M2703 424 c-7 -19 2 -28 22 -21 19 8 19 23 0 31 -9 3 -18 -1 -22 -10z"/>
</g>
</svg>
